<?xml version="1.0" encoding="UTF-8"?>
<svg version="1.1" xmlns="http://www.w3.org/2000/svg" width="1183" height="1094">
<path d="M0,0 L89,0 L87,4 L73,25 L60,44 L45,66 L32,85 L17,107 L4,126 L-11,148 L-24,167 L-39,189 L-52,208 L-67,230 L-82,252 L-95,271 L-110,293 L-123,312 L-138,334 L-151,353 L-166,375 L-179,394 L-194,416 L-209,438 L-222,457 L-237,479 L-250,498 L-245,507 L-233,524 L-225,536 L-212,555 L-208,560 L-196,542 L-181,520 L-168,501 L-153,479 L-140,460 L-125,438 L-112,419 L-97,397 L-82,375 L-69,356 L-54,334 L-41,315 L-26,293 L-13,274 L2,252 L15,233 L30,211 L45,189 L58,170 L73,148 L86,129 L101,107 L114,88 L129,66 L142,47 L157,25 L170,6 L174,0 L263,0 L261,4 L247,25 L234,44 L219,66 L206,85 L191,107 L178,126 L163,148 L150,167 L135,189 L122,208 L107,230 L92,252 L79,271 L64,293 L51,312 L36,334 L23,353 L8,375 L-5,394 L-20,416 L-35,438 L-48,457 L-63,479 L-76,498 L-91,520 L-104,539 L-119,561 L-132,580 L-147,602 L-160,621 L-163,625 L-161,630 L-149,647 L-141,659 L-128,678 L-113,700 L-100,719 L-85,741 L-70,763 L-57,782 L-42,804 L-29,823 L-14,845 L-1,864 L14,886 L27,905 L42,927 L57,949 L70,968 L85,990 L98,1009 L113,1031 L126,1050 L141,1072 L154,1091 L155,1094 L66,1094 L49,1069 L36,1050 L21,1028 L8,1009 L-7,987 L-20,968 L-35,946 L-50,924 L-63,905 L-78,883 L-91,864 L-106,842 L-119,823 L-134,801 L-147,782 L-162,760 L-177,738 L-190,719 L-205,697 L-218,678 L-233,656 L-246,637 L-261,615 L-274,596 L-289,574 L-302,555 L-317,533 L-332,511 L-340,499 L-333,488 L-317,464 L-307,450 L-299,438 L-286,419 L-271,397 L-256,375 L-243,356 L-228,334 L-215,315 L-200,293 L-187,274 L-172,252 L-159,233 L-144,211 L-129,189 L-116,170 L-101,148 L-88,129 L-73,107 L-60,88 L-45,66 L-32,47 L-17,25 L-4,6 Z " fill="#FFFFFF" transform="translate(920,0)"/>
<path d="M0,0 L89,0 L87,4 L73,25 L60,44 L45,66 L32,85 L17,107 L4,126 L-11,148 L-24,167 L-39,189 L-52,208 L-67,230 L-82,252 L-95,271 L-110,293 L-123,312 L-138,334 L-151,353 L-166,375 L-179,394 L-194,416 L-209,438 L-222,457 L-237,479 L-250,498 L-265,520 L-278,539 L-293,561 L-306,580 L-321,602 L-334,621 L-349,643 L-364,665 L-377,684 L-392,706 L-405,725 L-420,747 L-433,766 L-448,788 L-461,807 L-476,829 L-491,851 L-504,870 L-519,892 L-532,911 L-547,933 L-560,952 L-575,974 L-588,993 L-603,1015 L-616,1034 L-631,1056 L-646,1078 L-657,1094 L-746,1094 L-741,1085 L-729,1068 L-713,1044 L-701,1027 L-693,1015 L-680,996 L-665,974 L-652,955 L-637,933 L-624,914 L-609,892 L-596,873 L-581,851 L-568,832 L-553,810 L-538,788 L-525,769 L-510,747 L-497,728 L-482,706 L-469,687 L-454,665 L-441,646 L-426,624 L-411,602 L-398,583 L-383,561 L-370,542 L-355,520 L-342,501 L-327,479 L-314,460 L-299,438 L-286,419 L-271,397 L-256,375 L-243,356 L-228,334 L-215,315 L-200,293 L-187,274 L-172,252 L-159,233 L-144,211 L-129,189 L-116,170 L-101,148 L-88,129 L-73,107 L-60,88 L-45,66 L-32,47 L-17,25 L-4,6 Z " fill="#FFFFFF" transform="translate(746,0)"/>
<path d="M0,0 L6,5 L16,20 L24,31 L41,56 L54,75 L69,97 L82,116 L97,138 L110,157 L125,179 L140,201 L153,220 L168,242 L181,261 L196,283 L209,302 L224,324 L237,343 L252,365 L267,387 L280,406 L295,428 L308,447 L323,469 L336,488 L351,510 L364,529 L365,532 L276,532 L259,507 L246,488 L231,466 L218,447 L203,425 L190,406 L175,384 L160,362 L147,343 L132,321 L119,302 L104,280 L91,261 L76,239 L63,220 L48,198 L33,176 L20,157 L5,135 L1,131 L-15,154 L-31,178 L-43,195 L-59,219 L-71,236 L-87,260 L-99,277 L-107,289 L-120,308 L-135,330 L-148,349 L-163,371 L-176,390 L-191,412 L-204,431 L-219,453 L-232,472 L-247,494 L-262,516 L-273,532 L-362,532 L-357,523 L-345,506 L-329,482 L-317,465 L-309,453 L-296,434 L-281,412 L-268,393 L-253,371 L-240,352 L-225,330 L-212,311 L-197,289 L-184,270 L-169,248 L-154,226 L-141,207 L-126,185 L-113,166 L-98,144 L-85,125 L-70,103 L-57,84 L-42,62 L-17,25 Z " fill="#FFFFFF" transform="translate(536,562)"/>
</svg>
