<svg xmlns="http://www.w3.org/2000/svg" width="526.89893" height="658.94924" viewBox="0 0 526.89893 658.94924" xmlns:xlink="http://www.w3.org/1999/xlink"><circle cx="340.7969" cy="214.15394" r="143.68463" fill="#ff6363" stroke-width="0"/><path d="m331.99809,213.84053l-14.40215,16.42237v45.8977s-45.68364,117.09099-23.68039,175.48421c0,0,15.1657,12.69418,16.04564-6.77023s11.88156-51.62299,11.88156-51.62299c0,0,29.61975-43.16021,28.77347-70.24112,0,0,36.06394-96.78863,18.45511-108.4801l-37.07324-.68984Z" fill="#45485a" stroke-width="0"/><path d="m274.43447,654.14048c-.68122-41.4444-1.31614-82.88957-1.89396-124.33555-.57758-41.42863-1.09857-82.85806-1.55364-124.28823-.455-41.42407-.84409-82.84888-1.158-124.27427-.31394-41.43073-.55269-82.86204-.70703-124.29367-.07719-20.72145-.13324-41.44297-.16711-62.16454-.02172-13.2916-1.49149-30.53725,7.35547-41.69492,1.91-2.40886,4.30132-4.15394,7.04524-5.49207,5.20507-2.53835.64794-10.30244-4.54247-7.77124-13.45037,6.55934-17.41141,22.07164-18.50142,35.79714-.68208,8.5888-.36113,17.25947-.34509,25.86586.01969,10.56426.04513,21.12851.07617,31.69275.12353,42.04332.33576,84.08638.62712,126.12887.29271,42.23796.66528,84.47536,1.10789,126.71201.44053,42.03802.95044,84.0753,1.51997,126.11177.56975,42.05268,1.19917,84.10455,1.87846,126.1556.08535,5.2835.17154,10.567.25839,15.85048.09509,5.78541,9.09539,5.80321,9,0h0Z" fill="#2f2e41" stroke-width="0"/><path d="m369.07133,166.74837s37.52035,144.62235,77.65805,182.17767c0,0,12.2627,83.36156,79.91279,95.94855,0,0-49.6071-58.42249-38.92882-85.47414,12.69418-32.15859-3.38511-222.57127-118.479-192.95152" fill="#45485a" stroke-width="0"/><path d="m265.32304,296.3249c5.70274,1.25135,11.61635-.3017,16.29706-3.72024,4.88736-3.56947,8.11456-8.48599,10.40783-14.023,2.34475-5.6613,3.62593-11.72058,4.98323-17.67504,1.44147-6.32369,2.79102-12.66829,4.28566-18.97985,5.2527-22.18111,13.01637-45.97825,31.77317-60.51392,10.21319-7.91476,23.11496-11.9979,36.00134-11.66448,3.86243.09993,3.8602-5.90012,0-6-12.01184-.31079-24.12107,2.93085-34.34536,9.2553-9.72639,6.01646-17.47996,14.73273-23.34476,24.47926-12.98517,21.57961-16.02211,46.72201-22.2681,70.65558-1.53013,5.86319-3.49527,12.06842-7.65962,16.64263-3.69395,4.05751-9.22626,6.92307-14.53541,5.75808-1.58122-.34697-3.24522.47528-3.69036,2.09532-.4125,1.50124.50572,3.34155,2.09532,3.69036h0Z" fill="#2f2e41" stroke-width="0"/><path d="m526.3855,445.84082c-22.49365-5.97461-40.73193-29.28662-52.74316-67.41602-9.02612-28.65283-11.44385-55.90332-11.46729-56.17529-3.12329-36.03711-13.88989-86.58691-47.4458-122.75049-20.00732-21.56201-38.84326-27.80664-39.03125-27.86719l.61328-1.90332c.7876.25342,19.52417,6.46777,39.88403,28.41016,18.73438,20.19043,42.26465,58.08203,47.97241,123.93896.09253,1.07715,9.87012,107.78906,62.7312,121.83057l-.51343,1.93262Z" fill="#2f2e41" stroke-width="0"/><path d="m367.37878,3.4166s37.52035,144.62235,77.65805,182.17767c0,0,12.2627,83.36156,79.91279,95.94855,0,0-49.6071-58.42249-38.92882-85.47414,12.69418-32.15859-3.38511-222.57127-118.479-192.95152" fill="#45485a" stroke-width="0"/><path d="m263.63049,132.99313c5.70274,1.25135,11.61635-.3017,16.29706-3.72024,4.88736-3.56947,8.11456-8.48599,10.40783-14.023,2.34475-5.6613,3.62593-11.72058,4.98323-17.67504,1.44147-6.32369,2.79102-12.66829,4.28566-18.97985,5.2527-22.18111,13.01637-45.97825,31.77317-60.51392,10.21319-7.91476,23.11496-11.9979,36.00134-11.66448,3.86243.09993,3.8602-5.90012,0-6-12.01184-.31079-24.12107,2.93085-34.34536,9.2553-9.72639,6.01646-17.47996,14.73273-23.34476,24.47926-12.98517,21.57961-16.02211,46.72201-22.2681,70.65558-1.53013,5.86319-3.49527,12.06842-7.65962,16.64263-3.69395,4.05751-9.22626,6.92307-14.53541,5.75808-1.58122-.34697-3.24522.47528-3.69036,2.09532-.4125,1.50124.50572,3.34155,2.09532,3.69036h0Z" fill="#2f2e41" stroke-width="0"/><path d="m524.69312,282.50928c-22.49365-5.97461-40.73193-29.28662-52.74341-67.41602-9.02612-28.65283-11.44385-55.90332-11.46729-56.17529-3.12329-36.03711-13.88989-86.58691-47.4458-122.75049-20.00732-21.56201-38.84326-27.80664-39.03125-27.86719l.61328-1.90332c.7876.25342,19.52417,6.46777,39.88403,28.41016,18.73438,20.19043,42.26465,58.08203,47.97241,123.93896.09253,1.07715,9.87036,107.78906,62.73145,121.83057l-.51343,1.93262Z" fill="#2f2e41" stroke-width="0"/><path d="m163.75167,320.77107s-37.52035,144.62235-77.65805,182.17767c0,0-12.2627,83.36156-79.91279,95.94855,0,0,49.6071-58.42249,38.92882-85.47414-12.69418-32.15859,3.38511-222.57127,118.479-192.95152" fill="#45485a" stroke-width="0"/><path d="m265.90492,444.56193c-4.63635,1.01736-9.60206-1.06866-13.16848-4.37912-3.99628-3.70947-6.27089-8.81733-7.86894-13.94033-1.83785-5.89177-3.07502-11.98273-4.41503-18.00163-1.44332-6.48295-2.85639-12.97433-4.49436-19.41173-5.69978-22.40079-14.98685-45.40442-34.32628-59.43167-10.87789-7.88993-24.46661-11.97343-37.88016-11.62637-3.85383.09971-3.86884,6.1001,0,6,11.59187-.29992,23.06894,2.96199,32.75178,9.35302,9.11105,6.01363,16.10738,14.72548,21.36869,24.19669,5.8679,10.56317,9.5347,22.11888,12.47463,33.79249,1.60299,6.365,2.99546,12.7801,4.42322,19.18592,1.3526,6.06855,2.59545,12.21966,4.5041,18.14401,2.00381,6.21974,4.99649,12.47813,10.09548,16.75523,5.06533,4.24887,11.53348,6.59672,18.13039,5.14916,1.58313-.34739,2.50836-2.18737,2.09532-3.69036-.44883-1.63321-2.10255-2.44373-3.69036-2.09532h0Z" fill="#2f2e41" stroke-width="0"/><path d="m6.4375,599.86377l-.51343-1.93262c52.86108-14.0415,62.63867-120.75342,62.7312-121.82959,3.15039-36.35107,14.03052-87.35986,47.97241-123.93994,20.35986-21.94238,39.09644-28.15674,39.88403-28.41016l.61377,1.90332c-.18872.06104-19.11353,6.35742-39.125,27.96777-18.48267,19.95898-41.70093,57.43945-47.35254,122.65088-.02344.271-2.44116,27.52148-11.46729,56.17432-12.01123,38.12939-30.24951,61.44141-52.74316,67.41602Z" fill="#2f2e41" stroke-width="0"/><path d="m157.82772,33.03635s-37.52035,144.62235-77.65805,182.17767c0,0-12.2627,83.36156-79.91279,95.94855,0,0,49.6071-58.42249,38.92882-85.47414-12.69418-32.15859,3.38511-222.57127,118.479-192.95152" fill="#45485a" stroke-width="0"/><path d="m259.98097,156.82721c-4.63635,1.01736-9.60206-1.06866-13.16848-4.37912-3.99628-3.70947-6.27089-8.81733-7.86894-13.94033-1.83785-5.89177-3.07502-11.98273-4.41503-18.00163-1.44332-6.48295-2.85639-12.97433-4.49436-19.41173-5.69978-22.40079-14.98685-45.40442-34.32628-59.43167-10.87789-7.88993-24.46661-11.97343-37.88016-11.62637-3.85383.09971-3.86884,6.1001,0,6,11.59187-.29992,23.06894,2.96199,32.75178,9.35302,9.11105,6.01363,16.10738,14.72548,21.36869,24.19669,5.8679,10.56317,9.5347,22.11888,12.47463,33.79249,1.60299,6.365,2.99546,12.7801,4.42322,19.18592,1.3526,6.06855,2.59545,12.21966,4.5041,18.14401,2.00381,6.21974,4.99649,12.47813,10.09548,16.75523,5.06533,4.24887,11.53348,6.59672,18.13039,5.14916,1.58313-.34739,2.50836-2.18737,2.09532-3.69036-.44883-1.63321-2.10255-2.44373-3.69036-2.09532h0Z" fill="#2f2e41" stroke-width="0"/><path d="m.51343,312.12891l-.51343-1.93262c52.87085-14.04395,62.63892-120.75342,62.73145-121.82959,3.15039-36.35107,14.03052-87.35986,47.97241-123.93994,20.35986-21.94238,39.09644-28.15674,39.88403-28.41016l.61377,1.90332c-.18872.06104-19.11353,6.35742-39.125,27.96777-18.48267,19.95898-41.70093,57.43945-47.35254,122.65088-.02344.271-2.44116,27.52148-11.46729,56.17432-12.01147,38.12939-30.24976,61.44141-52.74341,67.41602Z" fill="#2f2e41" stroke-width="0"/><path d="m266.12056,70.97703s31.99073-10.32337,37.08623,24.80241c5.0955,35.12578,22.28618,88.34094,22.28618,88.34094,0,0-11.29755,28.71374-7.89702,46.14252,0,0,35.23307,3.57545,51.47539-15.73253l-23.56471-43.59211s-17.73099-118.97061-72.74357-120.54634l-6.64249,20.58511Z" fill="#2f2e41" stroke-width="0"/><path d="m487.56041,657.75924c0,.65997-.53003,1.19-1.19,1.19H75.15043c-.66,0-1.19-.53003-1.19-1.19s.53-1.19,1.19-1.19h411.21997c.65997,0,1.19.53003,1.19,1.19Z" fill="#2e2e43" stroke-width="0"/></svg>